# xmcd
#
# Track frame offsets:
#	150
#	41650
#	68320
#	100455
#	129845
#	157735
#	183595
#	242095
#	259580
#	295095
#	317725
#
# Disc length: 4624 seconds
#
# Revision: 3
# Processed by: cddbd v1.5.2PL0 Copyright (c) Steve Scherf et al.
# Submitted via: EZCDAudioConverter 2.1.7.1
#
DISCID=8c120e0b
DTITLE=V/A - Legend Of A Mind 3/3
DYEAR=2002
DGENRE=
TTITLE0=Savoy Brown - Hellbound Train
TTITLE1=Khan - Stranded
TTITLE2=Thin Lizzy - The Rise and Dear Demise Of The Funky Nomadic Tribes
TTITLE3=Trapeze - Seafull
TTITLE4=Caravan - C'Lu Thlu
TTITLE5=Thin Lizzy - Whisky In The Jar
TTITLE6=Camel - Lady Fantasy: Encounter/Smiles For You/Lady Fantasy
TTITLE7=Pete Brown and Friends - Nights In Armour
TTITLE8=Curved Air - Propositions
TTITLE9=Camel - Air Born
TTITLE10=Darryl Way's Wolf - The Envoy
EXTD=
EXTT0=
EXTT1=
EXTT2=
EXTT3=
EXTT4=
EXTT5=
EXTT6=
EXTT7=
EXTT8=
EXTT9=
EXTT10=
PLAYORDER=
